<svg width="512" height="512" viewBox="0 0 512 512" fill="none" xmlns="http://www.w3.org/2000/svg">
<rect width="512" height="512" rx="51.2" fill="#323232"/>
<path d="M206.048 323.762L147.559 265.272L206.048 206.783L217.771 218.256L170.132 265.272L217.771 312.288L206.048 323.762ZM331.572 347.457C322.676 347.457 314.486 345.877 307.004 342.718C299.521 339.558 293.078 335.069 287.673 329.249C282.269 323.346 278.32 316.321 275.826 308.173L293.285 302.935C296.278 311.831 301.184 318.565 308.001 323.138C314.902 327.711 322.676 329.914 331.322 329.748C339.304 329.581 346.163 327.794 351.899 324.385C357.719 320.976 362.167 316.237 365.243 310.168C368.32 304.099 369.858 297.073 369.858 289.092C369.858 276.87 366.283 267.06 359.133 259.66C352.066 252.178 342.712 248.436 331.073 248.436C327.83 248.436 324.422 248.894 320.846 249.808C317.271 250.64 313.946 251.845 310.87 253.425L301.641 238.834L371.479 174.358L374.472 181.841H282.934V164.257H386.694V182.09L325.835 240.205L325.585 232.972C338.057 231.393 349.031 232.806 358.509 237.212C367.987 241.619 375.387 248.353 380.708 257.415C386.112 266.395 388.814 276.953 388.814 289.092C388.814 300.565 386.32 310.709 381.331 319.521C376.426 328.251 369.65 335.11 361.003 340.099C352.357 345.004 342.546 347.457 331.572 347.457Z" fill="white"/>
</svg>
